<?xml version="1.0" encoding="UTF-8"?>
<svg width="80px" height="80px" viewBox="0 0 80 80" version="1.1" xmlns="http://www.w3.org/2000/svg" xmlns:xlink="http://www.w3.org/1999/xlink">
    <!-- Generator: Sketch 64 (93537) - https://sketch.com -->
    <title>GRACE-SVG</title>
    <desc>Created with Sketch.</desc>
    <g id="Page-4" stroke="none" stroke-width="1" fill="none" fill-rule="evenodd">
        <g id="ICONS" transform="translate(-92.000000, -57.000000)">
            <g id="GRACE-SVG" transform="translate(92.000000, 57.000000)">
                <g id="ICON">
                    <circle id="BG" fill="#F49B06" cx="40" cy="40" r="40"></circle>
                    <g id="crown" transform="translate(8.750000, 5.625000)" fill-rule="nonzero">
                        <polygon id="Path" points="0 0 62.5 0 62.5 62.5 0 62.5"></polygon>
                        <g id="Group" transform="translate(2.563477, 7.202148)" fill="#FFFFFF">
                            <path d="M20.4199219,0.0572509766 C18.0900879,0.0572509766 16.2011719,1.94555664 16.2011719,4.27612305 C16.2011719,6.23864746 17.5418701,7.88574219 19.355835,8.3581543 L15.0413818,18.3601074 C16.9794922,18.7122803 18.4477539,20.4089355 18.4477539,22.4494629 C18.4477539,24.7451172 16.588623,26.6075439 14.2937012,26.6075439 C11.9985352,26.6075439 10.1394043,24.7449951 10.1394043,22.4493408 C10.1394043,20.8172607 11.0797119,19.4068604 12.4472656,18.7261963 L6.24438477,9.05578613 C7.22180176,8.34533691 7.8581543,7.19543457 7.8581543,5.89355469 C7.8581543,3.73376465 6.11083984,1.97998047 3.9519043,1.97998047 C1.79272461,1.97998047 0.0417480469,3.73413086 0.0417480469,5.89355469 C0.0417480469,8.05334473 1.79272461,9.80371094 3.95166016,9.80371094 C4.04125977,9.80371094 4.13085938,9.80200195 4.21875,9.79614258 L9.33435059,37.5061035 L47.9085693,37.5061035 L53.02771,9.79614258 C53.1156006,9.80200195 53.2053223,9.80383301 53.2947998,9.80383301 C55.4537354,9.80383301 57.2047119,8.05334473 57.2047119,5.89367676 C57.2047119,3.73388672 55.4537354,1.98010254 53.2947998,1.98010254 C51.1357422,1.98010254 49.3848877,3.73425293 49.3848877,5.89367676 C49.3846436,7.20263672 50.0301514,8.35791016 51.017334,9.06750488 L44.8337402,18.776001 C46.1494141,19.4742432 47.0463867,20.8560791 47.0463867,22.449585 C47.0463867,24.7452393 45.1872559,26.607666 42.892334,26.607666 C40.5974121,26.607666 38.7380371,24.7451172 38.7380371,22.4494629 C38.7380371,20.3608398 40.2763672,18.6326904 42.2817383,18.3372803 L38.0397949,8.38464355 C39.9044189,7.94799805 41.2938232,6.27441406 41.2938232,4.27612305 C41.2938232,1.9453125 39.4049072,0.0572509766 37.0750732,0.0572509766 C34.744751,0.0572509766 32.855835,1.94555664 32.855835,4.27612305 C32.855835,6.08251953 33.9920654,7.62268066 35.5871582,8.2244873 L30.1513672,17.4981689 C31.9360352,18.0499268 33.2336426,19.7091064 33.2336426,21.6751709 C33.2336426,24.0916748 31.2740479,26.0505371 28.8581543,26.0505371 C26.4423828,26.0505371 24.4865723,24.0916748 24.4865723,21.6750488 C24.4865723,19.824707 25.6343994,18.2446289 27.2559814,17.6048584 L21.869751,8.23962402 C23.4852295,7.64819336 24.6392822,6.0970459 24.6392822,4.27600098 C24.6392822,1.94519043 22.7502441,0.0572509766 20.420166,0.0572509766 L20.4199219,0.0572509766 Z M9.33081055,39.7871094 C6.40380859,40.24646 6.5402832,44.6508789 9.84204102,44.6508789 L10.654541,44.6508789 L10.6623535,44.6929932 L46.5852051,44.6929932 L46.5928955,44.651001 L47.5236816,44.651001 C50.7016602,44.651001 50.927002,40.2652588 48.0501709,39.7874756 L9.33068848,39.7874756 L9.33081055,39.7871094 Z" id="Shape"></path>
                        </g>
                    </g>
                </g>
                <path d="M25.7172377,68.1913011 L25.7172377,64.386711 L21.6158357,64.386711 L21.6158357,65.3491014 L24.565967,65.3491014 L24.565967,67.0490246 L21.7687388,67.0490246 C20.5904852,67.0490246 19.7360264,66.1406001 19.7360264,64.9083806 C19.7360264,63.6671668 20.5994795,62.7947195 21.7687388,62.7947195 L25.3124941,62.7947195 L25.3124941,61.652443 L21.7687388,61.652443 C19.9428954,61.652443 18.59375,62.929634 18.59375,64.8544148 C18.59375,66.7522126 19.9428954,68.1913011 21.7687388,68.1913011 L25.7172377,68.1913011 Z M29.1620556,68.1913011 L29.1620556,62.7947195 L32.7237995,62.7947195 C33.5063038,62.7947195 33.9740076,63.2084574 33.9740076,64.0539218 C33.9740076,64.8993863 33.542281,65.36709 32.7237995,65.36709 L29.9985258,65.36709 L29.9985258,66.3744519 L32.4449761,66.3744519 L34.0999278,68.1913011 L35.7189023,68.1913011 L33.74915,66.2035602 C34.5946144,65.8797653 35.0982954,65.1152496 35.0982954,64.0359332 C35.0982954,62.5788562 34.2168537,61.652443 32.7237995,61.652443 L28.0287735,61.652443 L28.0287735,68.1913011 L29.1620556,68.1913011 Z M38.4351817,68.1913011 L41.4033016,63.1724802 L42.8603786,65.6189305 L40.8546491,65.6189305 L40.3149909,66.5453437 L43.4090311,66.5453437 L44.3894101,68.1913011 L45.7655384,68.1913011 L41.9969255,61.9312664 C41.862011,61.7064088 41.7001136,61.5625 41.4482731,61.5625 C41.1964326,61.5625 41.0255409,61.7064088 40.8906263,61.9312664 L37.1310078,68.1913011 L38.4351817,68.1913011 Z M53.3837127,68.1913011 L53.3837127,67.0490246 L49.8399575,67.0490246 C48.6617038,67.0490246 47.8072451,66.1406001 47.8072451,64.9083806 C47.8072451,63.6671668 48.6706981,62.7947195 49.8399575,62.7947195 L53.3837127,62.7947195 L53.3837127,61.652443 L49.8399575,61.652443 C48.014114,61.652443 46.6649686,62.929634 46.6649686,64.8544148 C46.6649686,66.7522126 48.014114,68.1913011 49.8399575,68.1913011 L53.3837127,68.1913011 Z M61.415625,68.1913011 L61.415625,67.0490246 L56.7026104,67.0490246 L56.7026104,62.7947195 L61.4066307,62.7947195 L61.4066307,61.652443 L55.5693283,61.652443 L55.5693283,68.1913011 L61.415625,68.1913011 Z M61.1637845,65.3491014 L61.1637845,64.386711 L57.5390806,64.386711 L57.5390806,65.3491014 L61.1637845,65.3491014 Z" id="FONT" fill="#FFFFFF" fill-rule="nonzero"></path>
            </g>
        </g>
    </g>
</svg>